<svg xmlns="http://www.w3.org/2000/svg" xmlns:xlink="http://www.w3.org/1999/xlink" width="500" zoomAndPan="magnify" viewBox="0 0 375 374.999991" height="500" preserveAspectRatio="xMidYMid meet" version="1.0"><defs><clipPath id="386b51fe50"><path d="M 88.125 150 L 225 150 L 225 286.875 L 88.125 286.875 Z M 88.125 150 " clip-rule="nonzero"/></clipPath><clipPath id="a782637ce6"><path d="M 150 88.125 L 286.875 88.125 L 286.875 225 L 150 225 Z M 150 88.125 " clip-rule="nonzero"/></clipPath></defs><g clip-path="url(#386b51fe50)"><path fill="#ff0000" d="M 209.199219 286.773438 L 165.847656 286.773438 C 157.484375 286.773438 150.640625 279.929688 150.640625 271.5625 L 150.640625 224.410156 L 103.488281 224.410156 C 95.121094 224.410156 88.277344 217.566406 88.277344 209.199219 L 88.277344 165.847656 C 88.277344 157.484375 95.121094 150.640625 103.488281 150.640625 L 144.65625 150.640625 C 152.617188 150.640625 160.628906 152.414062 167.828125 155.8125 L 218.832031 179.894531 L 214.523438 189.070312 L 163.515625 164.988281 C 157.636719 162.25 151.144531 160.78125 144.65625 160.78125 L 103.488281 160.78125 C 100.699219 160.78125 98.417969 163.0625 98.417969 165.847656 L 98.417969 209.199219 C 98.417969 211.988281 100.699219 214.269531 103.488281 214.269531 L 155.710938 214.269531 C 158.496094 214.269531 160.78125 216.550781 160.78125 219.339844 L 160.78125 271.5625 C 160.78125 274.351562 163.0625 276.632812 165.847656 276.632812 L 209.199219 276.632812 C 211.988281 276.632812 214.269531 274.351562 214.269531 271.5625 L 214.269531 234.550781 L 224.410156 234.550781 L 224.410156 271.5625 C 224.410156 279.929688 217.566406 286.773438 209.199219 286.773438 Z M 209.199219 286.773438 " fill-opacity="1" fill-rule="nonzero"/></g><g clip-path="url(#a782637ce6)"><path fill="#1dacff" d="M 271.5625 224.410156 L 230.394531 224.410156 C 222.433594 224.410156 214.421875 222.636719 207.222656 219.238281 L 156.164062 195.105469 L 160.476562 185.925781 L 211.480469 210.011719 C 217.363281 212.75 223.851562 214.21875 230.34375 214.21875 L 271.511719 214.21875 C 274.300781 214.21875 276.582031 211.9375 276.582031 209.148438 L 276.582031 165.800781 C 276.582031 163.011719 274.300781 160.730469 271.511719 160.730469 L 219.289062 160.730469 C 216.5 160.730469 214.21875 158.445312 214.21875 155.660156 L 214.21875 103.4375 C 214.21875 100.648438 211.9375 98.367188 209.148438 98.367188 L 165.800781 98.367188 C 163.011719 98.367188 160.730469 100.648438 160.730469 103.4375 L 160.730469 140.449219 L 150.589844 140.449219 L 150.589844 103.4375 C 150.589844 95.070312 157.433594 88.226562 165.800781 88.226562 L 209.148438 88.226562 C 217.515625 88.226562 224.359375 95.070312 224.359375 103.4375 L 224.359375 150.589844 L 271.511719 150.589844 C 279.878906 150.589844 286.722656 157.433594 286.722656 165.800781 L 286.722656 209.148438 C 286.773438 217.566406 279.929688 224.410156 271.5625 224.410156 Z M 271.5625 224.410156 " fill-opacity="1" fill-rule="nonzero"/></g></svg>